<?xml version="1.0" encoding="utf-8"?>
<!-- Generator: Adobe Illustrator 23.0.3, SVG Export Plug-In . SVG Version: 6.00 Build 0)  -->
<svg version="1.1" id="Layer_1" xmlns="http://www.w3.org/2000/svg" xmlns:xlink="http://www.w3.org/1999/xlink" x="0px" y="0px"
	 viewBox="0 0 223.84 265.38" style="enable-background:new 0 0 223.84 265.38;" xml:space="preserve">
<style type="text/css">
	.st0{fill:#FFFFFF;}
	.st1{fill:#FFCB29;}
	.st2{fill:#F37046;}
	.st3{fill:#5AC7DA;}
</style>
<g>
	<g>
		<g>
			<g>
				<path class="st0" d="M147.28,211.64l-2.22-5.83c-0.7-1.85-1.98-2.52-3.79-1.83l-2.87,1.09l4.39,11.55l2.87-1.09
					C147.47,214.84,147.98,213.49,147.28,211.64z M145,213.89l-1.03,0.39l-3.13-8.25l1.02-0.39c0.58-0.22,1.04-0.05,1.35,0.77
					l2.28,6.01C145.81,213.24,145.57,213.67,145,213.89z"/>
			</g>
			<g>
				<path class="st0" d="M148.59,201.2l-1.81,0.69l4.39,11.54l1.81-0.69L148.59,201.2z"/>
			</g>
			<g>
				<path class="st0" d="M160.16,206.84l-1.39-3.66l-2.54,0.97l0.62,1.65l0.83-0.32l0.81,2.13c0.31,0.83,0.06,1.26-0.52,1.48
					c-0.57,0.22-1.05,0.06-1.36-0.77l-2.37-6.23c-0.32-0.82-0.07-1.28,0.5-1.49c0.58-0.22,1.06-0.05,1.38,0.78l0.47,1.23l1.71-0.65
					l-0.42-1.12c-0.71-1.85-2.03-2.55-3.81-1.88c-1.78,0.68-2.31,2.09-1.6,3.94l2.28,6c0.7,1.85,2.03,2.55,3.81,1.87
					C160.34,210.1,160.86,208.69,160.16,206.84z"/>
			</g>
			<g>
				<path class="st0" d="M161.46,196.31l-1.81,0.69l4.38,11.54l1.82-0.69L161.46,196.31z"/>
			</g>
			<g>
				<path class="st0" d="M168.24,195.62l1.9-0.72l-0.63-1.65l-5.61,2.13l0.63,1.65l1.89-0.72l3.77,9.89l1.81-0.69L168.24,195.62z"/>
			</g>
			<g>
				<path class="st0" d="M175.35,191.03l-2.66,1.01l2.54,12.24l1.67-0.63l-0.48-2.21l2.22-0.85l1.11,1.98l1.83-0.7L175.35,191.03z
					 M176.05,199.78l-1.36-6.16l0.03-0.01l3.08,5.51L176.05,199.78z"/>
			</g>
			<g>
				<path class="st0" d="M188.25,197.45l-2.99,1.13l-3.76-9.89l-1.81,0.69l4.39,11.54l4.8-1.82L188.25,197.45z"/>
			</g>
		</g>
		<g>
			<g>
				
					<rect x="54.5" y="227.05" transform="matrix(0.9344 -0.3561 0.3561 0.9344 -74.668 49.2974)" class="st0" width="84.13" height="0.82"/>
			</g>
		</g>
		<g>
			<g>
				<g>
					<g>
						<g>
							<polygon class="st1" points="81.11,136.53 121.88,120.86 121.88,151.89 86.71,138.64 							"/>
						</g>
						<g>
							<polygon class="st0" points="79.38,104.33 120.77,119.97 79.38,135.88 79.37,135.88 36.13,119.82 							"/>
						</g>
						<g>
							<polygon class="st0" points="120.73,152.76 92.46,163.24 91.96,163.43 35.02,184.54 35.02,153.34 79.38,137.19 
								120.62,152.72 120.63,152.72 							"/>
						</g>
						<g>
							<polygon class="st2" points="77.51,103.67 40.49,116.95 34.95,118.94 34.95,88.17 							"/>
						</g>
						<g>
							<polygon class="st3" points="79.35,71.03 79.38,71.04 79.35,71.05 79.32,71.04 							"/>
							<polygon class="st3" points="121.82,55.25 121.82,86.27 81.08,71.05 81.04,71.03 81.07,71.02 							"/>
						</g>
						<g>
							<polygon class="st0" points="120.75,87.16 120.73,87.17 120.72,87.17 120.67,87.19 91.15,98.51 79.38,103.02 36.2,87.3 
								79.35,71.71 79.37,71.7 							"/>
						</g>
						<g>
							<polygon class="st0" points="79.38,104.33 120.77,119.97 79.38,135.88 79.37,135.88 36.13,119.82 							"/>
						</g>
						<g>
							<polygon class="st0" points="120.73,152.76 92.46,163.24 91.96,163.43 35.02,184.54 35.02,153.34 79.38,137.19 
								120.62,152.72 120.63,152.72 							"/>
						</g>
						<g>
							<polygon class="st0" points="120.72,54.36 120.75,54.37 79.38,70.39 79.34,70.38 35.29,53.92 34.96,53.79 34.96,22.57 
															"/>
						</g>
						<g>
							<polygon class="st0" points="120.75,87.16 120.73,87.17 120.72,87.17 120.67,87.19 91.15,98.51 79.38,103.02 36.2,87.3 
								79.35,71.71 79.37,71.7 							"/>
						</g>
						<g>
							<path class="st0" d="M122.65,86.56c0,0,0,0,0.01,0.01c-0.07-0.03-0.15-0.04-0.23-0.03v-0.06L122.65,86.56z"/>
							<path class="st0" d="M123.05,86.93l-0.01,0.01v-0.03C123.04,86.92,123.05,86.92,123.05,86.93z"/>
							<path class="st0" d="M123.05,54.57c0,0.01-0.01,0.02-0.01,0.02v-0.03L123.05,54.57z"/>
							<polygon class="st0" points="163.94,70.6 123.04,86.28 123.04,55.22 							"/>
						</g>
						<g>
							<polygon class="st0" points="163.9,136.51 123.1,151.79 123.1,120.86 							"/>
						</g>
					</g>
				</g>
				<g>
					<g>
						<g>
							<path class="st0" d="M77.98,218.28l-13.01-34.71l-7.22,2.7l4.67,26.69L48.2,189.85l-7.51,2.81l13.01,34.72l5.23-1.96
								l-8.15-21.76L64,223.52l4.2-1.58l-3.63-23.51l8.17,21.81L77.98,218.28z"/>
						</g>
						<g>
							<path class="st0" d="M81.84,177.28l-5.23,1.96l13,34.68l5.23-1.96L81.84,177.28z"/>
						</g>
						<g>
							<path class="st0" d="M124.89,200.63l-13-34.72l-5.24,1.96l8.75,23.33l-15.69-20.72l-5.87,2.2l13,34.71l5.24-1.96l-8.33-22.23
								l15.52,19.53L124.89,200.63z"/>
						</g>
						<g>
							<path class="st0" d="M150.1,181.78l-6.79-18.13c-0.85-2.27-2.38-3.91-4.58-4.94c-2.21-1.03-4.46-1.11-6.74-0.25l-8.22,3.08
								l13,34.71l8.22-3.08c2.27-0.85,3.91-2.39,4.9-4.61C150.89,186.33,150.96,184.07,150.1,181.78z M144.99,186.24
								c-0.35,0.82-0.94,1.38-1.77,1.69l-3.16,1.18L131,164.92l3.15-1.18c0.82-0.31,1.62-0.27,2.43,0.1c0.8,0.37,1.36,0.97,1.67,1.8
								l6.8,18.16C145.36,184.62,145.33,185.43,144.99,186.24z"/>
						</g>
						<g>
							<path class="st0" d="M176.79,171.41c-0.38-0.98-1.05-1.99-2.02-3.04c-0.39-0.42-0.86-0.86-1.41-1.33
								c-1.17-0.99-2.65-1.89-4.42-2.7c-0.54-0.26-1.61-0.67-3.21-1.23c-1.35-0.46-2.4-0.91-3.15-1.34
								c-1.99-1.13-3.27-2.49-3.87-4.08c-0.38-1.01-0.49-1.94-0.34-2.77c0.18-1.04,0.75-1.74,1.71-2.1c0.9-0.33,1.7-0.31,2.39,0.08
								c0.97,0.55,1.79,1.5,2.47,2.87l4.67-2.79c-0.7-1.47-1.59-2.66-2.66-3.58c-1.07-0.93-2.24-1.52-3.52-1.78
								c-1.64-0.33-3.39-0.15-5.25,0.55c-1.94,0.73-3.38,1.82-4.33,3.29c-1.51,2.42-1.68,5.21-0.49,8.37
								c0.66,1.76,1.65,3.24,2.99,4.44c1.22,1.06,3.01,2.11,5.37,3.14c2.8,1.18,4.9,2.07,6.3,2.66c1.85,0.94,3.04,2.12,3.58,3.56
								c0.37,1,0.48,1.83,0.33,2.5c-0.27,1.34-0.97,2.25-2.1,2.72c-0.8,0.34-1.64,0.28-2.53-0.17c-1.19-0.59-2.27-1.85-3.25-3.79
								l-4.85,2.22c0.8,1.81,1.8,3.3,2.99,4.49c1.19,1.18,2.51,1.98,3.94,2.39c1.73,0.51,3.62,0.38,5.67-0.39
								c1.11-0.41,2.03-0.91,2.76-1.48c1.37-1.06,2.26-2.33,2.67-3.81C177.88,176.11,177.74,173.81,176.79,171.41z"/>
						</g>
					</g>
				</g>
			</g>
		</g>
	</g>
	<g>
		<g>
			<path class="st0" d="M151.13,28.8v1.08h2.57v6.62h1.22v-6.62h2.56V28.8H151.13z"/>
		</g>
		<g>
			<path class="st0" d="M164.9,28.8l-2.54,4.7l-2.55-4.7h-1.3v7.69h1.21v-5.54l2.3,4.19h0.67l2.29-4.19v5.54h1.22V28.8H164.9z"/>
		</g>
	</g>
</g>
</svg>
